pose16
version=1
nRows=4
nColumns=213
inDegrees=yes
endheader
time	platform_rx	platform_ry	platform_rz	platform_ty	pelvis_tilt	pelvis_list	pelvis_rotation	pelvis_tx	pelvis_ty	pelvis_tz	hip_flexion_r	hip_adduction_r	hip_rotation_r	knee_angle_r	knee_angle_r_beta	ankle_angle_r	subtalar_angle_r	mtp_angle_r	hip_flexion_l	hip_adduction_l	hip_rotation_l	knee_angle_l	knee_angle_l_beta	ankle_angle_l	subtalar_angle_l	mtp_angle_l	lumbar_extension	lumbar_bending	lumbar_rotation	arm_flex_r	arm_add_r	arm_rot_r	elbow_flex_r	pro_sup_r	wrist_flex_r	wrist_dev_r	arm_flex_l	arm_add_l	arm_rot_l	elbow_flex_l	pro_sup_l	wrist_flex_l	wrist_dev_l	platform_rx_u	platform_ry_u	platform_rz_u	platform_ty_u	pelvis_tilt_u	pelvis_list_u	pelvis_rotation_u	pelvis_tx_u	pelvis_ty_u	pelvis_tz_u	hip_flexion_r_u	hip_adduction_r_u	hip_rotation_r_u	knee_angle_r_u	knee_angle_r_beta_u	ankle_angle_r_u	subtalar_angle_r_u	mtp_angle_r_u	hip_flexion_l_u	hip_adduction_l_u	hip_rotation_l_u	knee_angle_l_u	knee_angle_l_beta_u	ankle_angle_l_u	subtalar_angle_l_u	mtp_angle_l_u	lumbar_extension_u	lumbar_bending_u	lumbar_rotation_u	arm_flex_r_u	arm_add_r_u	arm_rot_r_u	elbow_flex_r_u	pro_sup_r_u	wrist_flex_r_u	wrist_dev_r_u	arm_flex_l_u	arm_add_l_u	arm_rot_l_u	elbow_flex_l_u	pro_sup_l_u	wrist_flex_l_u	wrist_dev_l_u	addbrev_r.activation	addlong_r.activation	addlong_r.fiber_length	addmagDist_r.activation	addmagIsch_r.activation	addmagIsch_r.fiber_length	addmagMid_r.activation	addmagProx_r.activation	bflh_r.activation	bflh_r.fiber_length	bfsh_r.activation	edl_r.activation	edl_r.fiber_length	ehl_r.activation	ehl_r.fiber_length	fdl_r.activation	fdl_r.fiber_length	fhl_r.activation	fhl_r.fiber_length	gaslat_r.activation	gaslat_r.fiber_length	gasmed_r.activation	gasmed_r.fiber_length	glmax1_r.activation	glmax2_r.activation	glmax3_r.activation	glmed1_r.activation	glmed2_r.activation	glmed3_r.activation	glmin1_r.activation	glmin2_r.activation	glmin3_r.activation	glmin3_r.fiber_length	grac_r.activation	iliacus_r.activation	perbrev_r.activation	perbrev_r.fiber_length	perlong_r.activation	perlong_r.fiber_length	piri_r.activation	piri_r.fiber_length	psoas_r.activation	recfem_r.activation	recfem_r.fiber_length	sart_r.activation	semimem_r.activation	semimem_r.fiber_length	semiten_r.activation	semiten_r.fiber_length	soleus_r.activation	soleus_r.fiber_length	tfl_r.activation	tfl_r.fiber_length	tibant_r.activation	tibant_r.fiber_length	tibpost_r.activation	tibpost_r.fiber_length	vasint_r.activation	vasint_r.fiber_length	vaslat_r.activation	vaslat_r.fiber_length	vasmed_r.activation	vasmed_r.fiber_length	addbrev_l.activation	addlong_l.activation	addlong_l.fiber_length	addmagDist_l.activation	addmagIsch_l.activation	addmagIsch_l.fiber_length	addmagMid_l.activation	addmagProx_l.activation	bflh_l.activation	bflh_l.fiber_length	bfsh_l.activation	edl_l.activation	edl_l.fiber_length	ehl_l.activation	ehl_l.fiber_length	fdl_l.activation	fdl_l.fiber_length	fhl_l.activation	fhl_l.fiber_length	gaslat_l.activation	gaslat_l.fiber_length	gasmed_l.activation	gasmed_l.fiber_length	glmax1_l.activation	glmax2_l.activation	glmax3_l.activation	glmed1_l.activation	glmed2_l.activation	glmed3_l.activation	glmin1_l.activation	glmin2_l.activation	glmin3_l.activation	glmin3_l.fiber_length	grac_l.activation	iliacus_l.activation	perbrev_l.activation	perbrev_l.fiber_length	perlong_l.activation	perlong_l.fiber_length	piri_l.activation	piri_l.fiber_length	psoas_l.activation	recfem_l.activation	recfem_l.fiber_length	sart_l.activation	semimem_l.activation	semimem_l.fiber_length	semiten_l.activation	semiten_l.fiber_length	soleus_l.activation	soleus_l.fiber_length	tfl_l.activation	tfl_l.fiber_length	tibant_l.activation	tibant_l.fiber_length	tibpost_l.activation	tibpost_l.fiber_length	vasint_l.activation	vasint_l.fiber_length	vaslat_l.activation	vaslat_l.fiber_length	vasmed_l.activation	vasmed_l.fiber_length
      0.01011586	     20.00000000	      0.00000000	      0.00000000	      0.25000000	    -24.54485218	     -0.00503920	      0.00658304	      0.01441362	      0.70514455	      0.00002517	     76.86937627	    -18.13406237	    -10.01369939	     79.25585330	     79.25585330	     18.86774721	     -1.19107026	      0.00000000	     76.87047919	    -18.17058943	     -9.95803018	     79.26065639	     79.26065639	     19.12094927	      0.00000000	      0.00000000	     -1.76835898	      0.00466218	      0.00750631	     89.34606438	     -0.01302245	     89.83551796	      0.17094813	      0.12240046	     -0.00000000	      0.00000000	     89.34655065	     -0.01376207	     89.83645489	      0.17177295	      0.12262275	     -0.00000000	      0.00000000	     -0.00000000	      0.00000000	      0.00000000	     -0.00000000	    279.24331022	     -0.82753568	     -1.17555740	      0.08131578	      0.42467066	      0.00419046	   -324.58236087	    -13.59149131	     -5.22643566	    -73.47254278	    -73.47254278	  -1398.19308711	   -205.32499449	      0.00000000	   -324.36236120	    -19.68894969	      4.12050986	    -72.78007816	    -72.78007816	  -1355.88315187	      0.00000000	      0.00000000	   -346.45600032	      0.71947689	      1.21862607	     67.77392669	     -2.57230464	     -1.15831455	      7.25926563	     -2.08622297	      0.00000000	     -0.00000000	     67.86590497	     -2.71297564	     -0.98648105	      7.41611654	     -2.04403076	      0.00000000	      0.00000000	      0.01000000	      0.01000000	      0.09725881	      0.01000000	      0.01000000	      0.20732243	      0.01000000	      0.01000000	      0.01000000	      0.11995948	      0.01000000	      0.01000000	      0.05668342	      0.01000000	      0.06500214	      0.01000000	      0.04743937	      0.01000000	      0.05546182	      0.01000000	      0.05747827	      0.01000000	      0.04744447	      0.01000000	      0.01000000	      0.01000000	      0.01000000	      0.01000000	      0.01000000	      0.01000000	      0.01000000	      0.01000000	      0.04609774	      0.01000000	      0.01000000	      0.01000000	      0.04975062	      0.01000000	      0.05629647	      0.01000000	      0.03107139	      0.01000000	      0.01000000	      0.05719932	      0.01000000	      0.01000000	      0.07892207	      0.01000000	      0.22999454	      0.01000000	      0.05788819	      0.01000000	      0.03499940	      0.01000000	      0.05197052	      0.01000000	      0.04167884	      0.01000000	      0.13060300	      0.01000000	      0.12760471	      0.01000000	      0.12548008	      0.01000000	      0.01000000	      0.09729917	      0.01000000	      0.01000000	      0.20734313	      0.01000000	      0.01000000	      0.01000000	      0.11996184	      0.01000000	      0.01000000	      0.05680069	      0.01000000	      0.06488948	      0.01000000	      0.04730945	      0.01000000	      0.05533011	      0.01000000	      0.05748127	      0.01000000	      0.04745033	      0.01000000	      0.01000000	      0.01000000	      0.01000000	      0.01000000	      0.01000000	      0.01000000	      0.01000000	      0.01000000	      0.04605769	      0.01000000	      0.01000000	      0.01000000	      0.05024309	      0.01000000	      0.05668764	      0.01000000	      0.03104753	      0.01000000	      0.01000000	      0.05719631	      0.01000000	      0.01000000	      0.07892148	      0.01000000	      0.22999798	      0.01000000	      0.05792446	      0.01000000	      0.03494330	      0.01000000	      0.05164320	      0.01000000	      0.04151403	      0.01000000	      0.13060479	      0.01000000	      0.12760624	      0.01000000	      0.12548164
      0.01072385	     20.00000000	      0.00000000	      0.00000000	      0.25000000	    -24.37006262	     -0.00554812	      0.00586425	      0.01446453	      0.70541065	      0.00002775	     76.66585404	    -18.14253962	    -10.01715833	     79.20905683	     79.20905683	     18.00039005	     -1.31773154	      0.00000000	     76.66709610	    -18.18281910	     -9.95573980	     79.21427639	     79.21427639	     18.27957721	      0.00000000	      0.00000000	     -1.98517671	      0.00510150	      0.00825369	     89.38847017	     -0.01463496	     89.83478742	      0.17549865	      0.12111668	     -0.00000000	      0.00000000	     89.38901371	     -0.01546213	     89.83583134	      0.17642112	      0.12136523	     -0.00000000	      0.00000000	     -0.00000000	      0.00000000	      0.00000000	     -0.00000000	    295.73295143	     -0.84548730	     -1.18720282	      0.08616145	      0.45068378	      0.00428325	   -344.94228553	    -14.29231566	     -6.16748325	    -80.52097492	    -80.52097492	  -1454.32133563	   -211.16440951	      0.00000000	   -344.70496192	    -20.53193433	      3.38882431	    -79.84557598	    -79.84557598	  -1411.19760311	      0.00000000	      0.00000000	   -366.76876353	      0.72445659	      1.23821535	     71.71961083	     -2.73232560	     -1.24547295	      7.71051445	     -2.13448290	      0.00000000	     -0.00000000	     71.81603751	     -2.87967176	     -1.06530117	      7.87492079	     -2.09028357	      0.00000000	      0.00000000	      0.01000000	      0.01000000	      0.09726612	      0.01000000	      0.01000000	      0.20724101	      0.01000000	      0.01000000	      0.01000000	      0.11984996	      0.01000000	      0.01000000	      0.05717400	      0.01000000	      0.06557491	      0.01000000	      0.04742196	      0.01000000	      0.05537444	      0.01000000	      0.05736579	      0.01000000	      0.04734768	      0.01000000	      0.01000000	      0.01000000	      0.01000000	      0.01000000	      0.01000000	      0.01000000	      0.01000000	      0.01000000	      0.04605335	      0.01000000	      0.01000000	      0.01000000	      0.04963796	      0.01000000	      0.05616482	      0.01000000	      0.03102198	      0.01000000	      0.01000000	      0.05731557	      0.01000000	      0.01000000	      0.07883058	      0.01000000	      0.22986093	      0.01000000	      0.05755399	      0.01000000	      0.03519923	      0.01000000	      0.05261595	      0.01000000	      0.04164050	      0.01000000	      0.13058549	      0.01000000	      0.12758972	      0.01000000	      0.12546478	      0.01000000	      0.01000000	      0.09731111	      0.01000000	      0.01000000	      0.20725358	      0.01000000	      0.01000000	      0.01000000	      0.11985268	      0.01000000	      0.01000000	      0.05730574	      0.01000000	      0.06544666	      0.01000000	      0.04726904	      0.01000000	      0.05522532	      0.01000000	      0.05736879	      0.01000000	      0.04735354	      0.01000000	      0.01000000	      0.01000000	      0.01000000	      0.01000000	      0.01000000	      0.01000000	      0.01000000	      0.01000000	      0.04600897	      0.01000000	      0.01000000	      0.01000000	      0.05018706	      0.01000000	      0.05660461	      0.01000000	      0.03099539	      0.01000000	      0.01000000	      0.05731214	      0.01000000	      0.01000000	      0.07882998	      0.01000000	      0.22986484	      0.01000000	      0.05759497	      0.01000000	      0.03513658	      0.01000000	      0.05225213	      0.01000000	      0.04145110	      0.01000000	      0.13058746	      0.01000000	      0.12759141	      0.01000000	      0.12546650
      0.01133183	     20.00000000	      0.00000000	      0.00000000	      0.25000000	    -24.18525699	     -0.00606631	      0.00514117	      0.01451839	      0.70569259	      0.00003037	     76.44990646	    -18.15143778	    -10.02121827	     79.15787695	     79.15787695	     17.10019345	     -1.44762955	      0.00000000	     76.45129795	    -18.19554540	     -9.95394022	     79.16349921	     79.16349921	     17.40577548	      0.00000000	      0.00000000	     -2.21432423	      0.00554203	      0.00901032	     89.43326939	     -0.01634512	     89.83400280	      0.18032459	      0.11980795	     -0.00000000	      0.00000000	     89.43387288	     -0.01726387	     89.83515876	      0.18134927	      0.12008397	     -0.00000000	      0.00000000	     -0.00000000	      0.00000000	      0.00000000	     -0.00000000	    312.18763511	     -0.85834733	     -1.19006273	      0.09101205	      0.47678241	      0.00435229	   -365.45269775	    -14.97521404	     -7.20378508	    -87.89017616	    -87.89017616	  -1506.19816991	   -215.96352832	      0.00000000	   -365.19844761	    -21.32321981	      2.50545208	    -87.24259616	    -87.24259616	  -1462.54276171	      0.00000000	      0.00000000	   -387.01029089	      0.72383425	      1.24950250	     75.64618536	     -2.89355903	     -1.33614439	      8.16524154	     -2.16812693	      0.00000000	     -0.00000000	     75.74695175	     -3.04739523	     -1.14783128	      8.33701408	     -2.12197750	      0.00000000	      0.00000000	      0.01000000	      0.01000000	      0.09727440	      0.01000000	      0.01000000	      0.20704813	      0.01000000	      0.01000000	      0.01000000	      0.11973365	      0.01000000	      0.01000000	      0.05768589	      0.01000000	      0.06617209	      0.01000000	      0.04740205	      0.01000000	      0.05528103	      0.01000000	      0.05725331	      0.01000000	      0.04725095	      0.01000000	      0.01000000	      0.01000000	      0.01000000	      0.01000000	      0.01000000	      0.01000000	      0.01000000	      0.01000000	      0.04600623	      0.01000000	      0.01000000	      0.01000000	      0.04952032	      0.01000000	      0.05602653	      0.01000000	      0.03096926	      0.01000000	      0.01000000	      0.05743904	      0.01000000	      0.01000000	      0.07873339	      0.01000000	      0.22971972	      0.01000000	      0.05720101	      0.01000000	      0.03541233	      0.01000000	      0.05328827	      0.01000000	      0.04159855	      0.01000000	      0.13056625	      0.01000000	      0.12757324	      0.01000000	      0.12544797	      0.01000000	      0.01000000	      0.09732416	      0.01000000	      0.01000000	      0.20706107	      0.01000000	      0.01000000	      0.01000000	      0.11973676	      0.01000000	      0.01000000	      0.05783284	      0.01000000	      0.06602735	      0.01000000	      0.04722429	      0.01000000	      0.05511404	      0.01000000	      0.05725631	      0.01000000	      0.04725681	      0.01000000	      0.01000000	      0.01000000	      0.01000000	      0.01000000	      0.01000000	      0.01000000	      0.01000000	      0.01000000	      0.04595740	      0.01000000	      0.01000000	      0.01000000	      0.05012752	      0.01000000	      0.05651652	      0.01000000	      0.03093988	      0.01000000	      0.01000000	      0.05743516	      0.01000000	      0.01000000	      0.07873281	      0.01000000	      0.22972415	      0.01000000	      0.05724692	      0.01000000	      0.03534294	      0.01000000	      0.05288692	      0.01000000	      0.04138330	      0.01000000	      0.13056839	      0.01000000	      0.12757508	      0.01000000	      0.12544983
      0.01193982	     20.00000000	      0.00000000	      0.00000000	      0.25000000	    -23.99044891	     -0.00659087	      0.00441890	      0.01457521	      0.70599044	      0.00003303	     76.22142992	    -18.16074477	    -10.02593733	     79.10212055	     79.10212055	     16.16978501	     -1.58011282	      0.00000000	     76.22298113	    -18.20873650	     -9.95272468	     79.10812539	     79.10812539	     16.50199544	      0.00000000	      0.00000000	     -2.45576691	      0.00598062	      0.00977140	     89.48045187	     -0.01815381	     89.83316191	      0.18542838	      0.11848345	      0.00000000	      0.00000000	     89.48111790	     -0.01916798	     89.83443474	      0.18655965	      0.11878810	     -0.00000000	      0.00000000	     -0.00000000	      0.00000000	      0.00000000	     -0.00000000	    328.64525973	     -0.86642559	     -1.18446733	      0.09588687	      0.50303558	      0.00439781	   -386.16907339	    -15.63677279	     -8.33571948	    -95.57483401	    -95.57483401	  -1553.68254245	   -219.65805529	      0.00000000	   -385.89793184	    -22.06023267	      1.46719067	    -94.96563415	    -94.96563415	  -1509.79305154	      0.00000000	      0.00000000	   -407.22453898	      0.71813080	      1.25277519	     79.56131284	     -3.05653702	     -1.43068266	      8.62483069	     -2.18618478	      0.00000000	     -0.00000000	     79.66621874	     -3.21653807	     -1.23459541	      8.80362370	     -2.13818481	      0.00000000	      0.00000000	      0.01000000	      0.01000000	      0.09728375	      0.01000000	      0.01000000	      0.20690335	      0.01000000	      0.01000000	      0.01000000	      0.11961051	      0.01000000	      0.01000000	      0.05821757	      0.01000000	      0.06679184	      0.01000000	      0.04737940	      0.01000000	      0.05518183	      0.01000000	      0.05714083	      0.01000000	      0.04715429	      0.01000000	      0.01000000	      0.01000000	      0.01000000	      0.01000000	      0.01000000	      0.01000000	      0.01000000	      0.01000000	      0.04595632	      0.01000000	      0.01000000	      0.01000000	      0.04939809	      0.01000000	      0.05588203	      0.01000000	      0.03091320	      0.01000000	      0.01000000	      0.05756972	      0.01000000	      0.01000000	      0.07863055	      0.01000000	      0.22957091	      0.01000000	      0.05682971	      0.01000000	      0.03563876	      0.01000000	      0.05398541	      0.01000000	      0.04155298	      0.01000000	      0.13054519	      0.01000000	      0.12755520	      0.01000000	      0.12542957	      0.01000000	      0.01000000	      0.09733840	      0.01000000	      0.01000000	      0.20691800	      0.01000000	      0.01000000	      0.01000000	      0.11961404	      0.01000000	      0.01000000	      0.05838041	      0.01000000	      0.06662979	      0.01000000	      0.04717520	      0.01000000	      0.05499671	      0.01000000	      0.05714384	      0.01000000	      0.04716014	      0.01000000	      0.01000000	      0.01000000	      0.01000000	      0.01000000	      0.01000000	      0.01000000	      0.01000000	      0.01000000	      0.04590298	      0.01000000	      0.01000000	      0.01000000	      0.05006454	      0.01000000	      0.05642357	      0.01000000	      0.03088095	      0.01000000	      0.01000000	      0.05756536	      0.01000000	      0.01000000	      0.07862999	      0.01000000	      0.22957590	      0.01000000	      0.05688076	      0.01000000	      0.03556249	      0.01000000	      0.05354573	      0.01000000	      0.04131067	      0.01000000	      0.13054749	      0.01000000	      0.12755717	      0.01000000	      0.12543158
